<?xml version="1.0" encoding="utf-8"?>
<!-- Generator: Adobe Illustrator 15.0.2, SVG Export Plug-In . SVG Version: 6.00 Build 0)  -->
<!DOCTYPE svg PUBLIC "-//W3C//DTD SVG 1.1//EN" "http://www.w3.org/Graphics/SVG/1.1/DTD/svg11.dtd">
<svg version="1.1" id="Layer_1" xmlns:rdf="http://www.w3.org/1999/02/22-rdf-syntax-ns#" xmlns:svg="http://www.w3.org/2000/svg"
	 xmlns="http://www.w3.org/2000/svg" xmlns:xlink="http://www.w3.org/1999/xlink" x="0px" y="0px" width="791.833px"
	 height="432.25px" viewBox="-9.833 -6.75 791.833 432.25" enable-background="new -9.833 -6.75 791.833 432.25"
	 xml:space="preserve">
<rect id="rect2987" x="490.522" y="191.966" fill="#fff" stroke="#000" width="100" height="50"/>
<text transform="matrix(1 0 0 1 515.1855 211.6331)" font-family="'Arial'" font-size="12"> </text>
<text transform="matrix(1 0 0 1 515.1855 211.6331)" font-family="'Arial'" font-size="16">Activity</text>
<text transform="matrix(1 0 0 1 565.8574 211.6331)" font-family="'Arial'" font-size="12"> </text>
<text transform="matrix(1 0 0 1 510.29 230.8323)" font-family="'Arial'" font-size="16">Diagram</text>
<rect id="rect3009" x="610.424" y="191.966" fill="#fff" stroke="#000" width="100" height="50"/>
<text transform="matrix(1 0 0 1 626.2988 211.6331)" font-family="'Arial'" font-size="12"> </text>
<text transform="matrix(1 0 0 1 626.2988 211.6331)" font-family="'Arial'" font-size="16">Use Case</text>
<text transform="matrix(1 0 0 1 696.5488 211.6331)" font-family="'Arial'" font-size="12"> </text>
<text transform="matrix(1 0 0 1 631.1934 230.8323)" font-family="'Arial'" font-size="16">Diagram</text>
<rect id="rect3019" x="669" y="263.918" fill="#fff" stroke="#000" width="100" height="50"/>
<text transform="matrix(1 0 0 1 700.541 279.1848)" font-family="'Arial'" font-size="12"> </text>
<text transform="matrix(1 0 0 1 700.541 279.1848)" font-family="'Arial'" font-size="16">State</text>
<text transform="matrix(1 0 0 1 737.9004 279.1848)" font-family="'Arial'" font-size="12"> </text>
<text transform="matrix(1 0 0 1 688.9824 293.1848)" font-family="'Arial'" font-size="16">Machine</text>
<text transform="matrix(1 0 0 1 749.459 293.1848)" font-family="'Arial'" font-size="12"> </text>
<text transform="matrix(1 0 0 1 688.9902 307.1848)" font-family="'Arial'" font-size="16">Diagram</text>
<rect id="rect3029" x="550.496" y="263.918" fill="#fff" stroke="#000" width="100" height="50"/>
<text transform="matrix(1 0 0 1 562.1426 283.5852)" font-family="'Arial'" font-size="12"> </text>
<text transform="matrix(1 0 0 1 562.1426 283.5852)" font-family="'Arial'" font-size="16">Interaction</text>
<text transform="matrix(1 0 0 1 636.8535 283.5852)" font-family="'Arial'" font-size="12"> </text>
<text transform="matrix(1 0 0 1 569.2676 302.7854)" font-family="'Arial'" font-size="16">Diagram</text>
<rect id="rect3039" x="554.256" y="360.049" fill="#fff" stroke="#000" width="100" height="50"/>
<text transform="matrix(1 0 0 1 565.2324 375.3167)" font-family="'Arial'" font-size="12"> </text>
<text transform="matrix(1 0 0 1 565.2324 375.3167)" font-family="'Arial'" font-size="16">Interaction</text>
<text transform="matrix(1 0 0 1 639.9443 375.3167)" font-family="'Arial'" font-size="12"> </text>
<text transform="matrix(1 0 0 1 569.25 389.3167)" font-family="'Arial'" font-size="16">Overview</text>
<text transform="matrix(1 0 0 1 635.9297 389.3167)" font-family="'Arial'" font-size="12"> </text>
<text transform="matrix(1 0 0 1 572.3574 403.3167)" font-family="'Arial'" font-size="16">Diagram</text>
<polygon id="rect3049" fill="#fff" stroke="#000" points="660.424,360.073 760.424,360.073 760.655,410.049 660.655,410.049 
	"/>
<text transform="matrix(1 0 0 1 686.5361 379.7278)" font-family="'Arial'" font-size="12"> </text>
<text transform="matrix(1 0 0 1 686.5361 379.7278)" font-family="'Arial'" font-size="16">Timing</text>
<text transform="matrix(1 0 0 1 733.9492 379.7278)" font-family="'Arial'" font-size="12"> </text>
<text transform="matrix(1 0 0 1 680.3086 398.928)" font-family="'Arial'" font-size="16">Diagram</text>
<rect id="rect3059" x="427.359" y="360.049" fill="#fff" stroke="#000" width="120" height="50"/>
<text transform="matrix(1 0 0 1 433.5176 379.2874)" font-family="'Arial'" font-size="12"> </text>
<text transform="matrix(1 0 0 1 432 379.2874)" font-family="'Arial'" font-size="14.5">Communication</text>
<text transform="matrix(1 0 0 1 537.7266 379.2874)" font-family="'Arial'" font-size="12"> </text>
<text transform="matrix(1 0 0 1 458.8643 398.4866)" font-family="'Arial'" font-size="16">Diagram</text>
<rect id="rect3069" x="320.46" y="360.049" fill="#fff" stroke="#000" width="100" height="50"/>
<text transform="matrix(1 0 0 1 332.7627 379.7151)" font-family="'Arial'" font-size="12"> </text>
<text transform="matrix(1 0 0 1 332.7627 379.7151)" font-family="'Arial'" font-size="16">Sequence</text>
<text transform="matrix(1 0 0 1 404.8242 379.7151)" font-family="'Arial'" font-size="12"> </text>
<text transform="matrix(1 0 0 1 338.5625 398.9153)" font-family="'Arial'" font-size="16">Diagram</text>
<rect id="rect3079" x="553.168" y="96.049" fill="#fff" stroke="#000" width="100" height="50"/>
<text transform="matrix(1 0 0 1 565.0996 115.0432)" font-family="'Arial'" font-size="12"> </text>
<text transform="matrix(1 0 0 1 565.0996 115.0432)" font-family="'Arial-Italic'" font-size="16" font-style="italic">Behaviour</text>
<text transform="matrix(1 0 0 1 637.1465 115.0432)" font-family="'Arial'" font-size="12"> </text>
<text transform="matrix(1 0 0 1 570.8926 134.2424)" font-family="'Arial-Italic'" font-size="16" font-style="italic">Diagram</text>
<rect id="rect3089" x="398.357" y="0.967" fill="#fff" stroke="#000" width="100.001" height="50"/>
<text transform="matrix(1 0 0 1 418.127 30.2327)" font-family="'Arial-Italic'" font-size="16" font-style="italic">Diagram</text>
<rect id="rect3099" x="179.419" y="96.466" fill="#fff" stroke="#000" width="100" height="50"/>
<text transform="matrix(1 0 0 1 196.9619 116.1311)" font-family="'Arial'" font-size="12"> </text>
<text transform="matrix(1 0 0 1 196.9619 116.1311)" font-family="'Arial-Italic'" font-size="16" font-style="italic">Structure</text>
<text transform="matrix(1 0 0 1 261.875 116.1311)" font-family="'Arial'" font-size="12"> </text>
<text transform="matrix(1 0 0 1 199.1875 135.3323)" font-family="'Arial-Italic'" font-size="16" font-style="italic">Diagram</text>
<rect id="rect3109" x="179.763" y="192.383" fill="#fff" stroke="#000" width="100" height="50"/>
<text transform="matrix(1 0 0 1 188.0581 211.3772)" font-family="'Arial'" font-size="12"> </text>
<text transform="matrix(1 0 0 1 188.0581 211.3772)" font-family="'Arial'" font-size="16">Component</text>
<text transform="matrix(1 0 0 1 270.7773 211.3772)" font-family="'Arial'" font-size="12"> </text>
<text transform="matrix(1 0 0 1 199.1875 230.5774)" font-family="'Arial'" font-size="16">Diagram</text>
<rect id="rect3119" x="59.824" y="192.383" fill="#fff" stroke="#000" width="100" height="50"/>
<text transform="matrix(1 0 0 1 88.4751 211.3772)" font-family="'Arial'" font-size="12"> </text>
<text transform="matrix(1 0 0 1 88.4751 211.3772)" font-family="'Arial'" font-size="16">Class</text>
<text transform="matrix(1 0 0 1 128.4834 211.3772)" font-family="'Arial'" font-size="12"> </text>
<text transform="matrix(1 0 0 1 78.2495 230.5774)" font-family="'Arial'" font-size="16">Diagram</text>
<rect id="rect3129" x="299.865" y="192.383" fill="#fff" stroke="#000" width="100" height="50"/>
<text transform="matrix(1 0 0 1 326.3999 211.3772)" font-family="'Arial'" font-size="12"> </text>
<text transform="matrix(1 0 0 1 326.3999 211.3772)" font-family="'Arial'" font-size="16">Object</text>
<text transform="matrix(1 0 0 1 372.6421 211.3772)" font-family="'Arial'" font-size="12"> </text>
<text transform="matrix(1 0 0 1 319.2915 230.5774)" font-family="'Arial'" font-size="16">Diagram</text>
<g>
	<rect id="rect3139" x="358.137" y="263.243" fill="#fff" stroke="#000" width="100" height="49.999"/>
	<text transform="matrix(1 0 0 1 377.0044 282.2385)" font-family="'Arial'" font-size="12">  </text>
	<text transform="matrix(1 0 0 1 377.0044 282.2385)" font-family="'Arial'" font-size="16">Package</text>
	<text transform="matrix(1 0 0 1 439.2695 282.2385)" font-family="'Arial'" font-size="12">  </text>
	<text transform="matrix(1 0 0 1 377.9063 301.4387)" font-family="'Arial'" font-size="16">Diagram</text>
</g>
<g>
	<rect id="rect3149" x="238.179" y="263.243" fill="#fff" stroke="#000" width="100" height="49.999"/>
	<text transform="matrix(1 0 0 1 245.4917 282.5022)" font-family="'Arial'" font-size="12">  </text>
	<text transform="matrix(1 0 0 1 245.4917 282.5022)" font-family="'Arial'" font-size="16">Deployment</text>
	<text transform="matrix(1 0 0 1 330.8667 282.5022)" font-family="'Arial'" font-size="12">  </text>
	<text transform="matrix(1 0 0 1 257.9482 301.7014)" font-family="'Arial'" font-size="16">Diagram</text>
</g>
<g>
	<rect id="rect3159" x="118.721" y="263.243" fill="#fff" stroke="#000" width="100" height="49.999"/>
	<text transform="matrix(1 0 0 1 130.4829 278.9856)" font-family="'Arial'" font-size="12">  </text>
	<text transform="matrix(1 0 0 1 130.4829 278.9856)" font-family="'Arial'" font-size="16">Composite</text>
	<text transform="matrix(1 0 0 1 206.9585 278.9856)" font-family="'Arial'" font-size="12">  </text>
	<text transform="matrix(1 0 0 1 136.2627 292.9856)" font-family="'Arial'" font-size="16">Structure</text>
	<text transform="matrix(1 0 0 1 201.1777 292.9856)" font-family="'Arial'" font-size="12">  </text>
	<text transform="matrix(1 0 0 1 138.4907 306.9856)" font-family="'Arial'" font-size="16">Diagram</text>
</g>
<g>
	<rect id="rect3169" x="-1.238" y="263.243" fill="#fff" stroke="#000" width="100" height="49.999"/>
	<text transform="matrix(1 0 0 1 26.0869 282.2385)" font-family="'Arial'" font-size="12">  </text>
	<text transform="matrix(1 0 0 1 26.0869 282.2385)" font-family="'Arial'" font-size="16">Profile</text>
	<text transform="matrix(1 0 0 1 71.4375 282.2385)" font-family="'Arial'" font-size="12">  </text>
	<text transform="matrix(1 0 0 1 18.5317 301.4387)" font-family="'Arial'" font-size="16">Diagram</text>
</g>
<path d="M0,0"/>
<path id="path4148" stroke="#000" d="M600.42,314.867"/>
<g id="g3375">
	<path id="path3369" fill="none" stroke="#000" d="M372.378,359.994V342.66l338.16,0.055v17.396"/>
	<path id="path3373" fill="none" stroke="#000" d="M493.942,342.715v17.365"/>
</g>
<g id="g5341">
	<path id="path5337" fill="none" stroke="#000" d="M540.488,192.059v-17.407l178.732,0.041v89.226"/>
	<path id="path5339" fill="none" stroke="#000" d="M660.354,191.596v-16.902"/>
</g>
<path fill="none" stroke="#000" d="M0,0"/>
<path id="path5345" stroke="#000" d="M600.439,147.005"/>
<path id="path5533" fill="none" stroke="#000" d="M600.459,95.88V78.436H228.453v17.988"/>
<path fill="none" stroke="#000" d="M0,0"/>
<path id="path5535" stroke="#000" d="M448.562,51.915"/>
<g id="g5733">
	<path id="path5723" fill="none" stroke="#000" d="M408.354,263.159v-88.742H48.614v88.833"/>
	<path id="path5725" fill="none" stroke="#000" d="M108.496,192.305v-17.821"/>
	<path id="path5727" fill="none" stroke="#000" d="M168.5,174.563v88.688"/>
	<path id="path5729" fill="none" stroke="#000" d="M288.469,263.125v-88.453"/>
	<path id="path5731" fill="none" stroke="#000" d="M348.579,192.228v-17.655"/>
</g>
<path fill="none" stroke="#000" d="M0,0"/>
<path id="path5740" stroke="#000" d="M228.469,147.359"/>
<path id="rect6114_2_" fill="#fff" stroke="#000" d="M83.002,372.75H3.52l-0.176,35h91.502l-0.188-25.248L83.002,372.75z"/>
<path id="path6137" fill="none" stroke="#000" stroke-miterlimit="2" d="M94.658,382.502l-12.306,1.196L83,372.75L94.658,382.502
	z"/>
<text transform="matrix(1 0 0 1 6.5625 395.8655)" font-family="'Arial'" font-size="12">Notation: UML</text>
<g>
	<g>
		<line fill="none" stroke="#000" x1="228.483" y1="156.531" x2="228.453" y2="174.417"/>
		<g>
			<polygon fill="none" stroke="#000" stroke-miterlimit="10" points="223.467,156.531 228.453,147.896 233.439,156.531 			"/>
		</g>
	</g>
</g>
<line fill="none" stroke="#000" stroke-width="1.0276" x1="228.453" y1="174.417" x2="228.453" y2="192.383"/>
<path id="path5740_1_" stroke="#000" d="M442.537,51.377"/>
<line fill="none" stroke="#000" x1="442.552" y1="60.55" x2="442.521" y2="78.436"/>
<g>
	<polygon fill="none" stroke="#000" stroke-miterlimit="10" points="437.535,60.55 442.521,51.915 447.508,60.55 	"/>
</g>
<path id="path5740_2_" stroke="#000" d="M600.455,146.049"/>
<line fill="none" stroke="#000" x1="600.47" y1="155.221" x2="600.439" y2="263.918"/>
<g>
	<polygon fill="none" stroke="#000" stroke-miterlimit="10" points="595.453,155.221 600.439,146.587 605.426,155.221 	"/>
</g>
<path id="path5740_3_" stroke="#000" d="M600.512,313.918"/>
<line fill="none" stroke="#000" x1="600.526" y1="323.091" x2="600.526" y2="360.049"/>
<g>
	<polygon fill="none" stroke="#000" stroke-miterlimit="10" points="595.51,323.091 600.496,314.456 605.482,323.091 	"/>
</g>
</svg>
