<?xml version="1.0" encoding="UTF-8" standalone="no"?>
<!-- Generator: Adobe Illustrator 15.0.2, SVG Export Plug-In . SVG Version: 6.00 Build 0)  -->

<svg
   xmlns:dc="http://purl.org/dc/elements/1.1/"
   xmlns:cc="http://creativecommons.org/ns#"
   xmlns:rdf="http://www.w3.org/1999/02/22-rdf-syntax-ns#"
   xmlns:svg="http://www.w3.org/2000/svg"
   xmlns="http://www.w3.org/2000/svg"
   xmlns:sodipodi="http://sodipodi.sourceforge.net/DTD/sodipodi-0.dtd"
   xmlns:inkscape="http://www.inkscape.org/namespaces/inkscape"
   version="1.1"
   id="Layer_1"
   x="0px"
   y="0px"
   width="791.833px"
   height="432.25px"
   viewBox="-9.833 -6.75 791.833 432.25"
   enable-background="new -9.833 -6.75 791.833 432.25"
   xml:space="preserve"
   inkscape:version="0.48.5 r10040"
   sodipodi:docname="UML_diagrams_overview-highlighted.svg"
   inkscape:export-filename="/Users/JoshuaEckroth/Documents/git/csci221-website/images/UML_diagrams_overview-highlighted.png"
   inkscape:export-xdpi="70.019997"
   inkscape:export-ydpi="70.019997"><metadata
     id="metadata3527"><rdf:RDF><cc:Work
         rdf:about=""><dc:format>image/svg+xml</dc:format><dc:type
           rdf:resource="http://purl.org/dc/dcmitype/StillImage" /><dc:title></dc:title></cc:Work></rdf:RDF></metadata><defs
     id="defs3525" /><sodipodi:namedview
     pagecolor="#ffffff"
     bordercolor="#666666"
     borderopacity="1"
     objecttolerance="10"
     gridtolerance="10"
     guidetolerance="10"
     inkscape:pageopacity="0"
     inkscape:pageshadow="2"
     inkscape:window-width="1176"
     inkscape:window-height="641"
     id="namedview3523"
     showgrid="false"
     inkscape:zoom="0.85"
     inkscape:cx="312.86945"
     inkscape:cy="197.40201"
     inkscape:window-x="0"
     inkscape:window-y="0"
     inkscape:window-maximized="0"
     inkscape:current-layer="Layer_1" /><rect
     id="rect2987"
     x="490.522"
     y="191.966"
     fill="#fff"
     stroke="#000"
     width="100"
     height="50" /><text
     transform="matrix(1 0 0 1 515.1855 211.6331)"
     font-family="'Arial'"
     font-size="12"
     id="text3286" />
<text
     transform="matrix(1 0 0 1 515.1855 211.6331)"
     font-family="'Arial'"
     font-size="16"
     id="text3288">Activity</text>
<text
     transform="matrix(1 0 0 1 565.8574 211.6331)"
     font-family="'Arial'"
     font-size="12"
     id="text3290" />
<text
     transform="matrix(1 0 0 1 510.29 230.8323)"
     font-family="'Arial'"
     font-size="16"
     id="text3292">Diagram</text>
<rect
     id="rect3009"
     x="610.424"
     y="191.966"
     fill="#fff"
     stroke="#000"
     width="100"
     height="50" /><text
     transform="matrix(1 0 0 1 626.2988 211.6331)"
     font-family="'Arial'"
     font-size="12"
     id="text3295" />
<text
     transform="matrix(1 0 0 1 626.2988 211.6331)"
     font-family="'Arial'"
     font-size="16"
     id="text3297">Use Case</text>
<text
     transform="matrix(1 0 0 1 696.5488 211.6331)"
     font-family="'Arial'"
     font-size="12"
     id="text3299" />
<text
     transform="matrix(1 0 0 1 631.1934 230.8323)"
     font-family="'Arial'"
     font-size="16"
     id="text3301">Diagram</text>
<rect
     id="rect3019"
     x="669"
     y="263.918"
     fill="#fff"
     stroke="#000"
     width="100"
     height="50" /><text
     transform="matrix(1 0 0 1 700.541 279.1848)"
     font-family="'Arial'"
     font-size="12"
     id="text3304" />
<text
     transform="matrix(1 0 0 1 700.541 279.1848)"
     font-family="'Arial'"
     font-size="16"
     id="text3306">State</text>
<text
     transform="matrix(1 0 0 1 737.9004 279.1848)"
     font-family="'Arial'"
     font-size="12"
     id="text3308" />
<text
     transform="matrix(1 0 0 1 688.9824 293.1848)"
     font-family="'Arial'"
     font-size="16"
     id="text3310">Machine</text>
<text
     transform="matrix(1 0 0 1 749.459 293.1848)"
     font-family="'Arial'"
     font-size="12"
     id="text3312" />
<text
     transform="matrix(1 0 0 1 688.9902 307.1848)"
     font-family="'Arial'"
     font-size="16"
     id="text3314">Diagram</text>
<rect
     id="rect3029"
     x="550.496"
     y="263.918"
     fill="#fff"
     stroke="#000"
     width="100"
     height="50" /><text
     transform="matrix(1 0 0 1 562.1426 283.5852)"
     font-family="'Arial'"
     font-size="12"
     id="text3317" />
<text
     transform="matrix(1 0 0 1 562.1426 283.5852)"
     font-family="'Arial'"
     font-size="16"
     id="text3319">Interaction</text>
<text
     transform="matrix(1 0 0 1 636.8535 283.5852)"
     font-family="'Arial'"
     font-size="12"
     id="text3321" />
<text
     transform="matrix(1 0 0 1 569.2676 302.7854)"
     font-family="'Arial'"
     font-size="16"
     id="text3323">Diagram</text>
<rect
     id="rect3039"
     x="554.256"
     y="360.049"
     fill="#fff"
     stroke="#000"
     width="100"
     height="50" /><text
     transform="matrix(1 0 0 1 565.2324 375.3167)"
     font-family="'Arial'"
     font-size="12"
     id="text3326" />
<text
     transform="matrix(1 0 0 1 565.2324 375.3167)"
     font-family="'Arial'"
     font-size="16"
     id="text3328">Interaction</text>
<text
     transform="matrix(1 0 0 1 639.9443 375.3167)"
     font-family="'Arial'"
     font-size="12"
     id="text3330" />
<text
     transform="matrix(1 0 0 1 569.25 389.3167)"
     font-family="'Arial'"
     font-size="16"
     id="text3332">Overview</text>
<text
     transform="matrix(1 0 0 1 635.9297 389.3167)"
     font-family="'Arial'"
     font-size="12"
     id="text3334" />
<text
     transform="matrix(1 0 0 1 572.3574 403.3167)"
     font-family="'Arial'"
     font-size="16"
     id="text3336">Diagram</text>
<polygon
     id="rect3049"
     fill="#fff"
     stroke="#000"
     points="660.424,360.073 760.424,360.073 760.655,410.049 660.655,410.049   " /><text
     transform="matrix(1 0 0 1 686.5361 379.7278)"
     font-family="'Arial'"
     font-size="12"
     id="text3339" />
<text
     transform="matrix(1 0 0 1 686.5361 379.7278)"
     font-family="'Arial'"
     font-size="16"
     id="text3341">Timing</text>
<text
     transform="matrix(1 0 0 1 733.9492 379.7278)"
     font-family="'Arial'"
     font-size="12"
     id="text3343" />
<text
     transform="matrix(1 0 0 1 680.3086 398.928)"
     font-family="'Arial'"
     font-size="16"
     id="text3345">Diagram</text>
<rect
     id="rect3059"
     x="427.359"
     y="360.049"
     fill="#fff"
     stroke="#000"
     width="120"
     height="50" /><text
     transform="matrix(1 0 0 1 433.5176 379.2874)"
     font-family="'Arial'"
     font-size="12"
     id="text3348" />
<text
     transform="matrix(1 0 0 1 432 379.2874)"
     font-family="'Arial'"
     font-size="14.5"
     id="text3350">Communication</text>
<text
     transform="matrix(1 0 0 1 537.7266 379.2874)"
     font-family="'Arial'"
     font-size="12"
     id="text3352" />
<text
     transform="matrix(1 0 0 1 458.8643 398.4866)"
     font-family="'Arial'"
     font-size="16"
     id="text3354">Diagram</text>
<rect
     id="rect3069"
     x="320.46"
     y="360.049"
     fill="#fff"
     stroke="#000"
     width="100"
     height="50" /><text
     transform="matrix(1 0 0 1 332.7627 379.7151)"
     font-family="'Arial'"
     font-size="12"
     id="text3357" />
<text
     transform="matrix(1 0 0 1 332.7627 379.7151)"
     font-family="'Arial'"
     font-size="16"
     id="text3359">Sequence</text>
<text
     transform="matrix(1 0 0 1 404.8242 379.7151)"
     font-family="'Arial'"
     font-size="12"
     id="text3361" />
<text
     transform="matrix(1 0 0 1 338.5625 398.9153)"
     font-family="'Arial'"
     font-size="16"
     id="text3363">Diagram</text>
<rect
     id="rect3079"
     x="553.168"
     y="96.049"
     fill="#fff"
     stroke="#000"
     width="100"
     height="50" /><text
     transform="matrix(1 0 0 1 565.0996 115.0432)"
     font-family="'Arial'"
     font-size="12"
     id="text3366" />
<text
     transform="matrix(1 0 0 1 565.0996 115.0432)"
     font-family="'Arial-Italic'"
     font-size="16"
     font-style="italic"
     id="text3368">Behaviour</text>
<text
     transform="matrix(1 0 0 1 637.1465 115.0432)"
     font-family="'Arial'"
     font-size="12"
     id="text3370" />
<text
     transform="matrix(1 0 0 1 570.8926 134.2424)"
     font-family="'Arial-Italic'"
     font-size="16"
     font-style="italic"
     id="text3372">Diagram</text>
<rect
     id="rect3089"
     x="398.357"
     y="0.967"
     fill="#fff"
     stroke="#000"
     width="100.001"
     height="50" /><text
     transform="matrix(1 0 0 1 418.127 30.2327)"
     font-family="'Arial-Italic'"
     font-size="16"
     font-style="italic"
     id="text3375">Diagram</text>
<rect
     id="rect3099"
     x="179.419"
     y="96.466"
     fill="#fff"
     stroke="#000"
     width="100"
     height="50" /><text
     transform="matrix(1 0 0 1 196.9619 116.1311)"
     font-family="'Arial'"
     font-size="12"
     id="text3378" />
<text
     transform="matrix(1 0 0 1 196.9619 116.1311)"
     font-family="'Arial-Italic'"
     font-size="16"
     font-style="italic"
     id="text3380">Structure</text>
<text
     transform="matrix(1 0 0 1 261.875 116.1311)"
     font-family="'Arial'"
     font-size="12"
     id="text3382" />
<text
     transform="matrix(1 0 0 1 199.1875 135.3323)"
     font-family="'Arial-Italic'"
     font-size="16"
     font-style="italic"
     id="text3384">Diagram</text>
<rect
     id="rect3109"
     x="179.763"
     y="192.383"
     fill="#fff"
     stroke="#000"
     width="100"
     height="50" /><text
     transform="matrix(1 0 0 1 188.0581 211.3772)"
     font-family="'Arial'"
     font-size="12"
     id="text3387" />
<text
     transform="matrix(1 0 0 1 188.0581 211.3772)"
     font-family="'Arial'"
     font-size="16"
     id="text3389">Component</text>
<text
     transform="matrix(1 0 0 1 270.7773 211.3772)"
     font-family="'Arial'"
     font-size="12"
     id="text3391" />
<text
     transform="matrix(1 0 0 1 199.1875 230.5774)"
     font-family="'Arial'"
     font-size="16"
     id="text3393">Diagram</text>
<rect
     id="rect3119"
     x="59.824"
     y="192.383"
     fill="#fff"
     stroke="#000"
     width="100"
     height="50" /><text
     transform="matrix(1 0 0 1 88.4751 211.3772)"
     font-family="'Arial'"
     font-size="12"
     id="text3396" />
<text
     transform="matrix(1 0 0 1 88.4751 211.3772)"
     font-family="'Arial'"
     font-size="16"
     id="text3398">Class</text>
<text
     transform="matrix(1 0 0 1 128.4834 211.3772)"
     font-family="'Arial'"
     font-size="12"
     id="text3400" />
<text
     transform="matrix(1 0 0 1 78.2495 230.5774)"
     font-family="'Arial'"
     font-size="16"
     id="text3402">Diagram</text>
<rect
     id="rect3129"
     x="299.865"
     y="192.383"
     fill="#fff"
     stroke="#000"
     width="100"
     height="50" /><text
     transform="matrix(1 0 0 1 326.3999 211.3772)"
     font-family="'Arial'"
     font-size="12"
     id="text3405" />
<text
     transform="matrix(1 0 0 1 326.3999 211.3772)"
     font-family="'Arial'"
     font-size="16"
     id="text3407">Object</text>
<text
     transform="matrix(1 0 0 1 372.6421 211.3772)"
     font-family="'Arial'"
     font-size="12"
     id="text3409" />
<text
     transform="matrix(1 0 0 1 319.2915 230.5774)"
     font-family="'Arial'"
     font-size="16"
     id="text3411">Diagram</text>
<g
     id="g3413"><rect
       id="rect3139"
       x="358.137"
       y="263.243"
       fill="#fff"
       stroke="#000"
       width="100"
       height="49.999" /><text
       transform="matrix(1 0 0 1 377.0044 282.2385)"
       font-family="'Arial'"
       font-size="12"
       id="text3416" />
<text
       transform="matrix(1 0 0 1 377.0044 282.2385)"
       font-family="'Arial'"
       font-size="16"
       id="text3418">Package</text>
<text
       transform="matrix(1 0 0 1 439.2695 282.2385)"
       font-family="'Arial'"
       font-size="12"
       id="text3420" />
<text
       transform="matrix(1 0 0 1 377.9063 301.4387)"
       font-family="'Arial'"
       font-size="16"
       id="text3422">Diagram</text>
</g><g
     id="g3424"><rect
       id="rect3149"
       x="238.179"
       y="263.243"
       fill="#fff"
       stroke="#000"
       width="100"
       height="49.999" /><text
       transform="matrix(1 0 0 1 245.4917 282.5022)"
       font-family="'Arial'"
       font-size="12"
       id="text3427" />
<text
       transform="matrix(1 0 0 1 245.4917 282.5022)"
       font-family="'Arial'"
       font-size="16"
       id="text3429">Deployment</text>
<text
       transform="matrix(1 0 0 1 330.8667 282.5022)"
       font-family="'Arial'"
       font-size="12"
       id="text3431" />
<text
       transform="matrix(1 0 0 1 257.9482 301.7014)"
       font-family="'Arial'"
       font-size="16"
       id="text3433">Diagram</text>
</g><g
     id="g3435"><rect
       id="rect3159"
       x="118.721"
       y="263.243"
       fill="#fff"
       stroke="#000"
       width="100"
       height="49.999" /><text
       transform="matrix(1 0 0 1 130.4829 278.9856)"
       font-family="'Arial'"
       font-size="12"
       id="text3438" />
<text
       transform="matrix(1 0 0 1 130.4829 278.9856)"
       font-family="'Arial'"
       font-size="16"
       id="text3440">Composite</text>
<text
       transform="matrix(1 0 0 1 206.9585 278.9856)"
       font-family="'Arial'"
       font-size="12"
       id="text3442" />
<text
       transform="matrix(1 0 0 1 136.2627 292.9856)"
       font-family="'Arial'"
       font-size="16"
       id="text3444">Structure</text>
<text
       transform="matrix(1 0 0 1 201.1777 292.9856)"
       font-family="'Arial'"
       font-size="12"
       id="text3446" />
<text
       transform="matrix(1 0 0 1 138.4907 306.9856)"
       font-family="'Arial'"
       font-size="16"
       id="text3448">Diagram</text>
</g><g
     id="g3450"><rect
       id="rect3169"
       x="-1.238"
       y="263.243"
       fill="#fff"
       stroke="#000"
       width="100"
       height="49.999" /><text
       transform="matrix(1 0 0 1 26.0869 282.2385)"
       font-family="'Arial'"
       font-size="12"
       id="text3453" />
<text
       transform="matrix(1 0 0 1 26.0869 282.2385)"
       font-family="'Arial'"
       font-size="16"
       id="text3455">Profile</text>
<text
       transform="matrix(1 0 0 1 71.4375 282.2385)"
       font-family="'Arial'"
       font-size="12"
       id="text3457" />
<text
       transform="matrix(1 0 0 1 18.5317 301.4387)"
       font-family="'Arial'"
       font-size="16"
       id="text3459">Diagram</text>
</g><path
     d="M0,0"
     id="path3461" /><path
     id="path4148"
     stroke="#000"
     d="M600.42,314.867" /><g
     id="g3375"><path
       id="path3369"
       fill="none"
       stroke="#000"
       d="M372.378,359.994V342.66l338.16,0.055v17.396" /><path
       id="path3373"
       fill="none"
       stroke="#000"
       d="M493.942,342.715v17.365" /></g><g
     id="g5341"><path
       id="path5337"
       fill="none"
       stroke="#000"
       d="M540.488,192.059v-17.407l178.732,0.041v89.226" /><path
       id="path5339"
       fill="none"
       stroke="#000"
       d="M660.354,191.596v-16.902" /></g><path
     fill="none"
     stroke="#000"
     d="M0,0"
     id="path3470" /><path
     id="path5345"
     stroke="#000"
     d="M600.439,147.005" /><path
     id="path5533"
     fill="none"
     stroke="#000"
     d="M600.459,95.88V78.436H228.453v17.988" /><path
     fill="none"
     stroke="#000"
     d="M0,0"
     id="path3474" /><path
     id="path5535"
     stroke="#000"
     d="M448.562,51.915" /><g
     id="g5733"><path
       id="path5723"
       fill="none"
       stroke="#000"
       d="M408.354,263.159v-88.742H48.614v88.833" /><path
       id="path5725"
       fill="none"
       stroke="#000"
       d="M108.496,192.305v-17.821" /><path
       id="path5727"
       fill="none"
       stroke="#000"
       d="M168.5,174.563v88.688" /><path
       id="path5729"
       fill="none"
       stroke="#000"
       d="M288.469,263.125v-88.453" /><path
       id="path5731"
       fill="none"
       stroke="#000"
       d="M348.579,192.228v-17.655" /></g><path
     fill="none"
     stroke="#000"
     d="M0,0"
     id="path3483" /><path
     id="path5740"
     stroke="#000"
     d="M228.469,147.359" /><g
     id="g3490"><g
       id="g3492"><line
         fill="none"
         stroke="#000"
         x1="228.483"
         y1="156.531"
         x2="228.453"
         y2="174.417"
         id="line3494" /><g
         id="g3496"><polygon
           fill="none"
           stroke="#000"
           stroke-miterlimit="10"
           points="223.467,156.531 228.453,147.896 233.439,156.531    "
           id="polygon3498" /></g></g></g><line
     fill="none"
     stroke="#000"
     stroke-width="1.0276"
     x1="228.453"
     y1="174.417"
     x2="228.453"
     y2="192.383"
     id="line3500" /><path
     id="path5740_1_"
     stroke="#000"
     d="M442.537,51.377" /><line
     fill="none"
     stroke="#000"
     x1="442.552"
     y1="60.55"
     x2="442.521"
     y2="78.436"
     id="line3503" /><g
     id="g3505"><polygon
       fill="none"
       stroke="#000"
       stroke-miterlimit="10"
       points="437.535,60.55 442.521,51.915 447.508,60.55  "
       id="polygon3507" /></g><path
     id="path5740_2_"
     stroke="#000"
     d="M600.455,146.049" /><line
     fill="none"
     stroke="#000"
     x1="600.47"
     y1="155.221"
     x2="600.439"
     y2="263.918"
     id="line3510" /><g
     id="g3512"><polygon
       fill="none"
       stroke="#000"
       stroke-miterlimit="10"
       points="595.453,155.221 600.439,146.587 605.426,155.221  "
       id="polygon3514" /></g><path
     id="path5740_3_"
     stroke="#000"
     d="M600.512,313.918" /><line
     fill="none"
     stroke="#000"
     x1="600.526"
     y1="323.091"
     x2="600.526"
     y2="360.049"
     id="line3517" /><g
     id="g3519"><polygon
       fill="none"
       stroke="#000"
       stroke-miterlimit="10"
       points="595.51,323.091 600.496,314.456 605.482,323.091  "
       id="polygon3521" /></g><path
     sodipodi:type="arc"
     style="fill:none;stroke:#0000ff;stroke-width:3;stroke-linecap:butt;stroke-linejoin:miter;stroke-miterlimit:4;stroke-opacity:1;stroke-dasharray:3, 3;stroke-dashoffset:0"
     id="path3529"
     sodipodi:cx="115.67254"
     sodipodi:cy="233.37442"
     sodipodi:rx="72.041664"
     sodipodi:ry="72.041664"
     d="m 187.7142,233.37442 a 72.041664,72.041664 0 1 1 -144.083325,0 72.041664,72.041664 0 1 1 144.083325,0 z"
     transform="matrix(0.8146338,0,0,0.8146338,14.478699,23.595072)" /><text
     xml:space="preserve"
     style="font-size:40px;font-style:normal;font-weight:normal;line-height:125%;letter-spacing:0px;word-spacing:0px;fill:#000000;fill-opacity:1;stroke:none;font-family:Sans"
     x="46.847992"
     y="147.11737"
     id="text4299"
     sodipodi:linespacing="125%"><tspan
       sodipodi:role="line"
       id="tspan4301"
       x="46.847992"
       y="147.11737"
       style="font-size:20px;fill:#0000ff;fill-opacity:1">Our concern</tspan></text>
</svg>